<?xml version="1.0" encoding="utf-8"?>
<!-- Generator: Adobe Illustrator 16.0.0, SVG Export Plug-In . SVG Version: 6.00 Build 0)  -->
<!DOCTYPE svg PUBLIC "-//W3C//DTD SVG 1.1//EN" "http://www.w3.org/Graphics/SVG/1.1/DTD/svg11.dtd">
<svg version="1.1" id="Layer_1" xmlns="http://www.w3.org/2000/svg" xmlns:xlink="http://www.w3.org/1999/xlink" x="0px" y="0px"
	 width="500px" height="500px" viewBox="0 0 500 500" enable-background="new 0 0 500 500" xml:space="preserve">
<g>
	<g>
		<path fill="#FFFFFF" stroke="#000000" stroke-width="10" stroke-miterlimit="10" d="M-2350.001,389.959
			c-119.353,0-216.107,30.307-216.107,67.693h432.217C-2133.892,420.266-2230.646,389.959-2350.001,389.959z"/>
		
			<rect x="-2487.672" y="205.544" fill="#FFFFFF" stroke="#000000" stroke-width="10" stroke-miterlimit="10" width="41.003" height="124.073"/>
		
			<rect x="-2253.336" y="205.544" fill="#FFFFFF" stroke="#000000" stroke-width="10" stroke-miterlimit="10" width="41.005" height="124.071"/>
		
			<ellipse fill="#FFFFFF" stroke="#000000" stroke-width="10" stroke-miterlimit="10" cx="-2350.003" cy="267.582" rx="117.168" ry="161.43"/>
		<rect x="-2229.221" y="39.948" width="5" height="165.597"/>
		
			<line fill="none" stroke="#000000" stroke-width="10" stroke-miterlimit="10" x1="-2446.669" y1="176.334" x2="-2253.336" y2="176.334"/>
		
			<line fill="none" stroke="#000000" stroke-width="10" stroke-miterlimit="10" x1="-2446.669" y1="358.711" x2="-2253.336" y2="358.711"/>
		<circle stroke="#000000" stroke-width="10" stroke-miterlimit="10" cx="-2388.805" cy="246.879" r="10.351"/>
		<circle stroke="#000000" stroke-width="10" stroke-miterlimit="10" cx="-2311.201" cy="246.879" r="10.35"/>
	</g>
	<rect x="-2573.022" y="449.653" fill="#FFFFFF" width="446.458" height="20"/>
</g>
<g>
	<g>
		
			<line fill="#FFFFFF" stroke="#000000" stroke-width="10" stroke-miterlimit="10" x1="-2027.75" y1="65.674" x2="-2027.75" y2="434.326"/>
		<path fill="#FFFFFF" stroke="#000000" stroke-width="10" stroke-miterlimit="10" d="M-2027.75,111.674
			c0.23,11.129,17.471,29.356,27,34"/>
		<path fill="#FFFFFF" stroke="#000000" stroke-width="10" stroke-miterlimit="10" d="M-2027.75,163.674
			c2.527,15.677-16.374,31.158-29,37"/>
		<path fill="#FFFFFF" stroke="#000000" stroke-width="10" stroke-miterlimit="10" d="M-2026.75,216.674
			c-0.528,1.92-0.026,4.835,0.104,6.803c10.191,2.887,19.317,9.075,29.896,11.197"/>
		<path fill="#FFFFFF" stroke="#000000" stroke-width="10" stroke-miterlimit="10" d="M-2029.75,274.674
			c-9.609,9.365-19.46,15.034-29,23"/>
		<path fill="#FFFFFF" stroke="#000000" stroke-width="10" stroke-miterlimit="10" d="M-2029.75,327.674
			c11.704,5.688,20.401,15.555,32,21"/>
		<path fill="#FFFFFF" stroke="#000000" stroke-width="10" stroke-miterlimit="10" d="M-2030.75,379.674
			c-9.035,2.04-17.581,6.896-23,13"/>
	</g>
	<g>
		<polyline fill="none" stroke="#000000" stroke-width="10" stroke-miterlimit="10" points="-1826.946,429.732 -1883.866,238.705 
			-1944.916,434.326 		"/>
		<polyline fill="none" stroke="#000000" stroke-width="10" stroke-miterlimit="10" points="-1644.75,430.391 -1735.75,136.379 
			-1853.25,340.379 		"/>
		
			<line fill="#FFFFFF" stroke="#000000" stroke-width="10" stroke-miterlimit="10" x1="-1704.207" y1="239.83" x2="-1822.75" y2="433.185"/>
		<g>
			<polyline fill="none" stroke="#000000" stroke-width="10" stroke-miterlimit="10" points="-1989.75,424.358 -1971.252,436.358 
				-1952.755,424.358 -1934.258,436.358 -1915.76,424.358 -1897.261,436.358 -1878.761,424.358 -1860.262,436.358 
				-1841.762,424.358 -1823.267,436.358 -1804.771,424.358 -1786.272,436.358 -1767.771,424.358 -1749.273,436.358 
				-1730.773,424.358 -1712.273,436.358 -1693.771,424.358 -1675.273,436.358 -1656.77,424.358 -1638.265,436.358 
				-1619.757,424.358 -1601.25,436.358 			"/>
		</g>
	</g>
</g>
<g>
	
		<line fill="none" stroke="#000000" stroke-width="12" stroke-miterlimit="10" x1="-1419.733" y1="107.23" x2="-1201.335" y2="107.23"/>
	<polyline fill="none" stroke="#000000" stroke-width="12" stroke-miterlimit="10" points="-1201.335,107.23 -1310.534,55.609 
		-1419.733,107.23 	"/>
	
		<rect x="-1397.891" y="107.23" fill="none" stroke="#000000" stroke-width="12" stroke-miterlimit="10" width="172.729" height="55.592"/>
	
		<rect x="-1354.213" y="107.23" fill="none" stroke="#000000" stroke-width="12" stroke-miterlimit="10" width="85.374" height="55.592"/>
	
		<rect x="-1407.819" y="162.822" fill="none" stroke="#000000" stroke-width="12" stroke-miterlimit="10" width="194.57" height="33.752"/>
	
		<rect x="-1410.271" y="197.3" fill="none" stroke="#000000" stroke-width="12" stroke-miterlimit="10" width="199.967" height="13.992"/>
	<line fill="none" stroke="#000000" stroke-width="12" stroke-miterlimit="10" x1="-1310" y1="55.609" x2="-1310" y2="464.149"/>
	
		<line fill="none" stroke="#000000" stroke-width="12" stroke-miterlimit="10" x1="-1256.354" y1="211.103" x2="-1224.297" y2="460.056"/>
	
		<line fill="none" stroke="#000000" stroke-width="12" stroke-miterlimit="10" x1="-1363.646" y1="210.269" x2="-1395.703" y2="459.222"/>
	
		<line fill="none" stroke="#000000" stroke-width="12" stroke-miterlimit="10" x1="-1375.39" y1="322.128" x2="-1375.39" y2="322.128"/>
	
		<line fill="none" stroke="#000000" stroke-width="12" stroke-miterlimit="10" x1="-1379.675" y1="211.103" x2="-1411.733" y2="460.056"/>
	
		<line fill="none" stroke="#000000" stroke-width="12" stroke-miterlimit="10" x1="-1240.325" y1="211.103" x2="-1208.267" y2="460.056"/>
	
		<line fill="none" stroke="#000000" stroke-width="12" stroke-miterlimit="10" x1="-1370.286" y1="266.283" x2="-1310.875" y2="309.35"/>
	
		<line fill="none" stroke="#000000" stroke-width="12" stroke-miterlimit="10" x1="-1375.39" y1="309.35" x2="-1310.875" y2="266.283"/>
	
		<line fill="none" stroke="#000000" stroke-width="12" stroke-miterlimit="10" x1="-1251.461" y1="266.283" x2="-1310.873" y2="309.35"/>
	
		<line fill="none" stroke="#000000" stroke-width="12" stroke-miterlimit="10" x1="-1246.358" y1="309.35" x2="-1310.873" y2="266.283"/>
	
		<line fill="none" stroke="#000000" stroke-width="12" stroke-miterlimit="10" x1="-1379.783" y1="346.411" x2="-1310.875" y2="396.439"/>
	
		<line fill="none" stroke="#000000" stroke-width="12" stroke-miterlimit="10" x1="-1385.711" y1="396.439" x2="-1310.875" y2="346.411"/>
	
		<line fill="none" stroke="#000000" stroke-width="12" stroke-miterlimit="10" x1="-1241.78" y1="346.411" x2="-1310.688" y2="396.439"/>
	
		<line fill="none" stroke="#000000" stroke-width="12" stroke-miterlimit="10" x1="-1235.852" y1="396.439" x2="-1310.688" y2="346.411"/>
	
		<line fill="none" stroke="#000000" stroke-width="12" stroke-miterlimit="10" x1="-1246.358" y1="35.851" x2="-1246.358" y2="84.823"/>
</g>
<g>
	<path fill="#85A647" stroke="#000000" stroke-width="15.2195" stroke-miterlimit="10" d="M-590,439.299
		c0-44.184-89.542-80-200.001-80c-110.456,0-199.999,35.816-199.999,80"/>
	<path fill="#E5C17E" stroke="#000000" stroke-width="14" stroke-miterlimit="10" d="M-691,274.424l9-113.527
		c0-9.332-23.222-21.897-28.429-21.897h-159.144c-5.206,0-29.428,12.565-29.428,21.897l10,113.527v-3.43
		c0,55.264,44.324,100.064,99,100.064s99-44.801,99-100.064"/>
	<line fill="none" stroke="#000000" stroke-width="12" stroke-miterlimit="10" x1="-790" y1="272.689" x2="-790" y2="322.689"/>
	<line fill="none" stroke="#000000" stroke-width="12" stroke-miterlimit="10" x1="-760" y1="277.764" x2="-760" y2="317.764"/>
	<line fill="none" stroke="#000000" stroke-width="12" stroke-miterlimit="10" x1="-820" y1="277.689" x2="-820" y2="317.689"/>
	<circle stroke="#000000" stroke-width="16" stroke-miterlimit="10" cx="-828.801" cy="224.353" r="10.351"/>
	<circle stroke="#000000" stroke-width="16" stroke-miterlimit="10" cx="-751.197" cy="224.353" r="10.35"/>
	<path fill="none" stroke="#000000" stroke-width="14" stroke-miterlimit="10" d="M-685,222.471
		c13.562,0,24.556,10.994,24.556,24.556s-10.994,24.556-24.556,24.556"/>
	<path fill="none" stroke="#000000" stroke-width="14" stroke-miterlimit="10" d="M-895.722,271.582
		c-13.562,0-24.556-10.994-24.556-24.556s10.994-24.556,24.556-24.556"/>
	<line fill="none" stroke="#000000" stroke-width="10" stroke-miterlimit="10" x1="-790" y1="81" x2="-790" y2="181"/>
	<circle stroke="#000000" stroke-width="22" stroke-miterlimit="10" cx="-790" cy="63.051" r="10.351"/>
</g>
<g>
	<path fill="#E5C17E" stroke="#000000" stroke-width="10" stroke-miterlimit="10" d="M-165,218.471
		c13.562,0,24.556,10.994,24.556,24.556s-10.994,24.556-24.556,24.556"/>
	<path fill="#E5C17E" stroke="#000000" stroke-width="10" stroke-miterlimit="10" d="M-375.722,267.582
		c-13.562,0-24.556-10.994-24.556-24.556s10.994-24.556,24.556-24.556"/>
	<path fill="#85A647" stroke="#000000" stroke-width="12" stroke-miterlimit="10" d="M-70,443.299c0-44.184-89.542-80-200.001-80
		c-110.456,0-199.999,35.816-199.999,80"/>
	<path fill="#E5C17E" stroke="#000000" stroke-width="10" stroke-miterlimit="10" d="M-171,278.424l9-113.527
		c0-9.332-23.222-21.897-28.429-21.897h-159.144c-5.206,0-29.428,12.565-29.428,21.897l10,113.527v-3.43
		c0,55.264,44.324,100.064,99,100.064s99-44.801,99-100.064"/>
	<circle stroke="#000000" stroke-width="14" stroke-miterlimit="10" cx="-308.801" cy="230.353" r="10.351"/>
	<circle stroke="#000000" stroke-width="14" stroke-miterlimit="10" cx="-231.197" cy="230.353" r="10.35"/>
</g>
<path stroke="#000000" stroke-width="11.8282" stroke-miterlimit="10" d="M-164.632,173.535c20.217-6.586,9.822-38.494,3.671-54.243
	c-3.442-8.811-5.51-19.52-11.95-25.569c-7.088-6.657-18.176-5.664-26.402-8.297c-11.92-3.815-19.999-15.705-31.269-19.998
	c-10.221-3.893-22.673-0.668-32.331,4.548c-13.783,7.444-24.709,12.383-39.032,16.438c-14.172,4.012-8.529,11.682-12.687,26.96
	l-1,12.592c-0.458,20.335,21.251,25.121,31.749,26.582c14.477,2.015,25.262,11.482,38.446,19.587
	c14.514,8.921,23.504,5.444,37.76,1.71c12.352-3.235,28.689,7.717,36.045-8.706"/>
<path stroke="#000000" stroke-width="10.662" stroke-miterlimit="10" d="M-309,128.801c0.301-16.991-7.285-22.251-20.805-27.851
	c-13.849-5.735-33.385-10.446-43.489,4.254c-5.847,8.506-11.702,21.323-15.507,30.982c-2.938,7.46-5.098,26.378-1.441,34.097
	c4.535,9.572,22.235,11.708,31.469,8.874c12.352-3.792,17.261-15.478,26.644-22.766c5.763-4.477,24.866-7.646,28.155-13.894
	c4.044-7.681-4.948-19.087-8.025-25.064"/>
<line fill="none" stroke="#000000" stroke-width="10" stroke-miterlimit="10" x1="-308.801" y1="298.689" x2="-232.197" y2="298.689"/>
<g>
	<defs>
		<rect id="SVGID_1_" x="50" y="50" width="400" height="400"/>
	</defs>
	<clipPath id="SVGID_2_">
		<use xlink:href="#SVGID_1_"  overflow="visible"/>
	</clipPath>
	<path clip-path="url(#SVGID_2_)" fill="#84A544" d="M212.066,143.75C208.984,119.092,187.991,100,162.5,100
		s-46.487,19.092-49.566,43.75H62.5v12.5h50.434C116.013,180.908,137.009,200,162.5,200s46.484-19.092,49.566-43.75H437.5v-12.5
		H212.066z M162.5,162.5c-6.903,0-12.5-5.597-12.5-12.5s5.597-12.5,12.5-12.5S175,143.097,175,150S169.403,162.5,162.5,162.5"/>
	<path clip-path="url(#SVGID_2_)" fill="#84A544" d="M337.5,200c-25.491,0-46.487,19.092-49.569,43.75H62.5v12.5h225.431
		C291.013,280.905,312.009,300,337.5,300s46.484-19.095,49.569-43.75H437.5v-12.5h-50.431C383.984,219.092,362.991,200,337.5,200
		 M337.5,262.5c-6.903,0-12.5-5.597-12.5-12.5s5.597-12.5,12.5-12.5S350,243.097,350,250S344.403,262.5,337.5,262.5"/>
	<path clip-path="url(#SVGID_2_)" fill="#84A544" d="M162.5,300c-25.491,0-46.487,19.095-49.566,43.75H62.5v12.5h50.434
		C116.013,380.905,137.009,400,162.5,400s46.484-19.095,49.566-43.75H437.5v-12.5H212.066C208.984,319.095,187.991,300,162.5,300
		 M162.5,362.5c-6.903,0-12.5-5.597-12.5-12.5s5.597-12.5,12.5-12.5S175,343.097,175,350S169.403,362.5,162.5,362.5"/>
</g>
</svg>
