<?xml version="1.0" encoding="utf-8"?>
<!-- Generator: Adobe Illustrator 16.0.0, SVG Export Plug-In . SVG Version: 6.00 Build 0)  -->
<!DOCTYPE svg PUBLIC "-//W3C//DTD SVG 1.1//EN" "http://www.w3.org/Graphics/SVG/1.1/DTD/svg11.dtd">
<svg version="1.1" id="Layer_1" xmlns="http://www.w3.org/2000/svg" xmlns:xlink="http://www.w3.org/1999/xlink" x="0px" y="0px"
	 width="500px" height="500px" viewBox="0 0 500 500" enable-background="new 0 0 500 500" xml:space="preserve">
<g>
	<g>
		<path fill="#FFFFFF" stroke="#000000" stroke-width="10" stroke-miterlimit="10" d="M-790.001,389.959
			c-119.353,0-216.107,30.307-216.107,67.693h432.217C-573.892,420.266-670.646,389.959-790.001,389.959z"/>
		
			<rect x="-927.672" y="205.544" fill="#FFFFFF" stroke="#000000" stroke-width="10" stroke-miterlimit="10" width="41.003" height="124.073"/>
		
			<rect x="-693.336" y="205.544" fill="#FFFFFF" stroke="#000000" stroke-width="10" stroke-miterlimit="10" width="41.005" height="124.071"/>
		
			<ellipse fill="#FFFFFF" stroke="#000000" stroke-width="10" stroke-miterlimit="10" cx="-790.003" cy="267.582" rx="117.168" ry="161.43"/>
		<rect x="-669.221" y="39.948" width="5" height="165.597"/>
		
			<line fill="none" stroke="#000000" stroke-width="10" stroke-miterlimit="10" x1="-886.669" y1="176.334" x2="-693.336" y2="176.334"/>
		
			<line fill="none" stroke="#000000" stroke-width="10" stroke-miterlimit="10" x1="-886.669" y1="358.711" x2="-693.336" y2="358.711"/>
		<circle stroke="#000000" stroke-width="10" stroke-miterlimit="10" cx="-828.805" cy="246.879" r="10.351"/>
		<circle stroke="#000000" stroke-width="10" stroke-miterlimit="10" cx="-751.201" cy="246.879" r="10.35"/>
	</g>
	<rect x="-1013.022" y="449.653" fill="#FFFFFF" width="446.458" height="20"/>
</g>
<g>
	<g>
		
			<line fill="#FFFFFF" stroke="#000000" stroke-width="10" stroke-miterlimit="10" x1="-467.75" y1="65.674" x2="-467.75" y2="434.326"/>
		<path fill="#FFFFFF" stroke="#000000" stroke-width="10" stroke-miterlimit="10" d="M-467.75,111.674
			c0.23,11.129,17.471,29.356,27,34"/>
		<path fill="#FFFFFF" stroke="#000000" stroke-width="10" stroke-miterlimit="10" d="M-467.75,163.674
			c2.527,15.677-16.374,31.158-29,37"/>
		<path fill="#FFFFFF" stroke="#000000" stroke-width="10" stroke-miterlimit="10" d="M-466.75,216.674
			c-0.528,1.92-0.026,4.835,0.104,6.803c10.191,2.887,19.317,9.075,29.896,11.197"/>
		<path fill="#FFFFFF" stroke="#000000" stroke-width="10" stroke-miterlimit="10" d="M-469.75,274.674
			c-9.609,9.365-19.46,15.034-29,23"/>
		<path fill="#FFFFFF" stroke="#000000" stroke-width="10" stroke-miterlimit="10" d="M-469.75,327.674
			c11.704,5.688,20.401,15.555,32,21"/>
		<path fill="#FFFFFF" stroke="#000000" stroke-width="10" stroke-miterlimit="10" d="M-470.75,379.674
			c-9.035,2.04-17.581,6.896-23,13"/>
	</g>
	<g>
		<polyline fill="none" stroke="#000000" stroke-width="10" stroke-miterlimit="10" points="-266.946,429.732 -323.866,238.705 
			-384.916,434.326 		"/>
		<polyline fill="none" stroke="#000000" stroke-width="10" stroke-miterlimit="10" points="-84.75,430.391 -175.75,136.379 
			-293.25,340.379 		"/>
		
			<line fill="#FFFFFF" stroke="#000000" stroke-width="10" stroke-miterlimit="10" x1="-144.207" y1="239.83" x2="-262.75" y2="433.185"/>
		<g>
			<polyline fill="none" stroke="#000000" stroke-width="10" stroke-miterlimit="10" points="-429.75,424.358 -411.252,436.358 
				-392.755,424.358 -374.258,436.358 -355.76,424.358 -337.261,436.358 -318.761,424.358 -300.262,436.358 -281.762,424.358 
				-263.267,436.358 -244.771,424.358 -226.272,436.358 -207.771,424.358 -189.273,436.358 -170.773,424.358 -152.273,436.358 
				-133.771,424.358 -115.273,436.358 -96.77,424.358 -78.265,436.358 -59.757,424.358 -41.25,436.358 			"/>
		</g>
	</g>
</g>
<g>
	<line fill="none" stroke="#000000" stroke-width="12" stroke-miterlimit="10" x1="140.267" y1="107.23" x2="358.665" y2="107.23"/>
	<polyline fill="none" stroke="#000000" stroke-width="12" stroke-miterlimit="10" points="358.665,107.23 249.466,55.609 
		140.267,107.23 	"/>
	
		<rect x="162.109" y="107.23" fill="none" stroke="#000000" stroke-width="12" stroke-miterlimit="10" width="172.729" height="55.592"/>
	
		<rect x="205.787" y="107.23" fill="none" stroke="#000000" stroke-width="12" stroke-miterlimit="10" width="85.374" height="55.592"/>
	
		<rect x="152.181" y="162.822" fill="none" stroke="#000000" stroke-width="12" stroke-miterlimit="10" width="194.57" height="33.752"/>
	
		<rect x="149.729" y="197.3" fill="none" stroke="#000000" stroke-width="12" stroke-miterlimit="10" width="199.967" height="13.992"/>
	<line fill="none" stroke="#000000" stroke-width="12" stroke-miterlimit="10" x1="250" y1="55.609" x2="250" y2="464.149"/>
	
		<line fill="none" stroke="#000000" stroke-width="12" stroke-miterlimit="10" x1="303.646" y1="211.103" x2="335.703" y2="460.056"/>
	
		<line fill="none" stroke="#000000" stroke-width="12" stroke-miterlimit="10" x1="196.354" y1="210.269" x2="164.297" y2="459.222"/>
	<line fill="none" stroke="#000000" stroke-width="12" stroke-miterlimit="10" x1="184.61" y1="322.128" x2="184.61" y2="322.128"/>
	
		<line fill="none" stroke="#000000" stroke-width="12" stroke-miterlimit="10" x1="180.325" y1="211.103" x2="148.267" y2="460.056"/>
	
		<line fill="none" stroke="#000000" stroke-width="12" stroke-miterlimit="10" x1="319.675" y1="211.103" x2="351.733" y2="460.056"/>
	
		<line fill="none" stroke="#000000" stroke-width="12" stroke-miterlimit="10" x1="189.714" y1="266.283" x2="249.125" y2="309.35"/>
	<line fill="none" stroke="#000000" stroke-width="12" stroke-miterlimit="10" x1="184.61" y1="309.35" x2="249.125" y2="266.283"/>
	
		<line fill="none" stroke="#000000" stroke-width="12" stroke-miterlimit="10" x1="308.539" y1="266.283" x2="249.127" y2="309.35"/>
	
		<line fill="none" stroke="#000000" stroke-width="12" stroke-miterlimit="10" x1="313.642" y1="309.35" x2="249.127" y2="266.283"/>
	
		<line fill="none" stroke="#000000" stroke-width="12" stroke-miterlimit="10" x1="180.217" y1="346.411" x2="249.125" y2="396.439"/>
	
		<line fill="none" stroke="#000000" stroke-width="12" stroke-miterlimit="10" x1="174.289" y1="396.439" x2="249.125" y2="346.411"/>
	
		<line fill="none" stroke="#000000" stroke-width="12" stroke-miterlimit="10" x1="318.22" y1="346.411" x2="249.312" y2="396.439"/>
	
		<line fill="none" stroke="#000000" stroke-width="12" stroke-miterlimit="10" x1="324.148" y1="396.439" x2="249.312" y2="346.411"/>
	<line fill="none" stroke="#000000" stroke-width="12" stroke-miterlimit="10" x1="313.642" y1="35.851" x2="313.642" y2="84.823"/>
</g>
<g>
	<path fill="#85A647" stroke="#000000" stroke-width="15.2195" stroke-miterlimit="10" d="M970,439.799
		c0-44.184-89.542-80-200.001-80c-110.456,0-199.999,35.816-199.999,80"/>
	<path fill="#FFFFFF" stroke="#000000" stroke-width="14" stroke-miterlimit="10" d="M869,273.494
		c0,55.264-44.324,100.064-99,100.064s-99-44.801-99-100.064"/>
	<line fill="none" stroke="#000000" stroke-width="14" stroke-miterlimit="10" x1="665" y1="192.526" x2="671" y2="274.494"/>
	<line fill="none" stroke="#000000" stroke-width="14" stroke-miterlimit="10" x1="875" y1="192.526" x2="869" y2="274.494"/>
	<line fill="none" stroke="#000000" stroke-width="14" stroke-miterlimit="10" x1="770" y1="284.189" x2="770" y2="324.189"/>
	<line fill="none" stroke="#000000" stroke-width="14" stroke-miterlimit="10" x1="795" y1="289.264" x2="795" y2="319.264"/>
	<line fill="none" stroke="#000000" stroke-width="14" stroke-miterlimit="10" x1="745" y1="289.189" x2="745" y2="319.189"/>
	<circle stroke="#000000" stroke-width="14" stroke-miterlimit="10" cx="731.199" cy="224.852" r="10.351"/>
	<circle stroke="#000000" stroke-width="14" stroke-miterlimit="10" cx="808.803" cy="224.852" r="10.35"/>
	<path fill="none" stroke="#000000" stroke-width="14" stroke-miterlimit="10" d="M870,224.97c13.562,0,24.556,10.994,24.556,24.556
		c0,13.562-10.994,24.556-24.556,24.556"/>
	<path fill="none" stroke="#000000" stroke-width="14" stroke-miterlimit="10" d="M668.278,274.082
		c-13.562,0-24.556-10.994-24.556-24.556c0-13.562,10.994-24.556,24.556-24.556"/>
	<path fill="none" stroke="#000000" stroke-width="14" stroke-miterlimit="10" d="M665,195.792v-55.645
		c0-1.552,0.447-2.958,1.172-3.975c0.724-1.018,1.724-1.647,2.828-1.647h101h101c1.104,0,2.104,0.629,2.828,1.647
		c0.725,1.017,1.172,2.422,1.172,3.975v55.645"/>
	<line fill="none" stroke="#000000" stroke-width="15.6525" stroke-miterlimit="10" x1="770" y1="64.55" x2="770" y2="164.55"/>
	<circle stroke="#000000" stroke-width="14" stroke-miterlimit="10" cx="770" cy="70.55" r="10.351"/>
</g>
</svg>
