<?xml version="1.0" encoding="utf-8"?>
<!-- Generator: Adobe Illustrator 16.0.0, SVG Export Plug-In . SVG Version: 6.00 Build 0)  -->
<!DOCTYPE svg PUBLIC "-//W3C//DTD SVG 1.1//EN" "http://www.w3.org/Graphics/SVG/1.1/DTD/svg11.dtd">
<svg version="1.1" id="Layer_1" xmlns="http://www.w3.org/2000/svg" xmlns:xlink="http://www.w3.org/1999/xlink" x="0px" y="0px"
	 width="500px" height="500px" viewBox="0 0 500 500" enable-background="new 0 0 500 500" xml:space="preserve">
<g>
	<g>
		<path fill="#FFFFFF" stroke="#000000" stroke-width="10" stroke-miterlimit="10" d="M-1830.001,389.959
			c-119.353,0-216.107,30.307-216.107,67.693h432.217C-1613.892,420.266-1710.646,389.959-1830.001,389.959z"/>
		
			<rect x="-1967.672" y="205.544" fill="#FFFFFF" stroke="#000000" stroke-width="10" stroke-miterlimit="10" width="41.003" height="124.073"/>
		
			<rect x="-1733.336" y="205.544" fill="#FFFFFF" stroke="#000000" stroke-width="10" stroke-miterlimit="10" width="41.005" height="124.071"/>
		
			<ellipse fill="#FFFFFF" stroke="#000000" stroke-width="10" stroke-miterlimit="10" cx="-1830.003" cy="267.582" rx="117.168" ry="161.43"/>
		<rect x="-1709.221" y="39.948" width="5" height="165.597"/>
		
			<line fill="none" stroke="#000000" stroke-width="10" stroke-miterlimit="10" x1="-1926.669" y1="176.334" x2="-1733.336" y2="176.334"/>
		
			<line fill="none" stroke="#000000" stroke-width="10" stroke-miterlimit="10" x1="-1926.669" y1="358.711" x2="-1733.336" y2="358.711"/>
		<circle stroke="#000000" stroke-width="10" stroke-miterlimit="10" cx="-1868.805" cy="246.879" r="10.351"/>
		<circle stroke="#000000" stroke-width="10" stroke-miterlimit="10" cx="-1791.201" cy="246.879" r="10.35"/>
	</g>
	<rect x="-2053.022" y="449.653" fill="#FFFFFF" width="446.458" height="20"/>
</g>
<g>
	<g>
		
			<line fill="#FFFFFF" stroke="#000000" stroke-width="10" stroke-miterlimit="10" x1="-1507.75" y1="65.674" x2="-1507.75" y2="434.326"/>
		<path fill="#FFFFFF" stroke="#000000" stroke-width="10" stroke-miterlimit="10" d="M-1507.75,111.674
			c0.23,11.129,17.471,29.356,27,34"/>
		<path fill="#FFFFFF" stroke="#000000" stroke-width="10" stroke-miterlimit="10" d="M-1507.75,163.674
			c2.527,15.677-16.374,31.158-29,37"/>
		<path fill="#FFFFFF" stroke="#000000" stroke-width="10" stroke-miterlimit="10" d="M-1506.75,216.674
			c-0.528,1.92-0.026,4.835,0.104,6.803c10.191,2.887,19.317,9.075,29.896,11.197"/>
		<path fill="#FFFFFF" stroke="#000000" stroke-width="10" stroke-miterlimit="10" d="M-1509.75,274.674
			c-9.609,9.365-19.46,15.034-29,23"/>
		<path fill="#FFFFFF" stroke="#000000" stroke-width="10" stroke-miterlimit="10" d="M-1509.75,327.674
			c11.704,5.688,20.401,15.555,32,21"/>
		<path fill="#FFFFFF" stroke="#000000" stroke-width="10" stroke-miterlimit="10" d="M-1510.75,379.674
			c-9.035,2.04-17.581,6.896-23,13"/>
	</g>
	<g>
		<polyline fill="none" stroke="#000000" stroke-width="10" stroke-miterlimit="10" points="-1306.946,429.732 -1363.866,238.705 
			-1424.916,434.326 		"/>
		<polyline fill="none" stroke="#000000" stroke-width="10" stroke-miterlimit="10" points="-1124.75,430.391 -1215.75,136.379 
			-1333.25,340.379 		"/>
		
			<line fill="#FFFFFF" stroke="#000000" stroke-width="10" stroke-miterlimit="10" x1="-1184.207" y1="239.83" x2="-1302.75" y2="433.185"/>
		<g>
			<polyline fill="none" stroke="#000000" stroke-width="10" stroke-miterlimit="10" points="-1469.75,424.358 -1451.252,436.358 
				-1432.755,424.358 -1414.258,436.358 -1395.76,424.358 -1377.261,436.358 -1358.761,424.358 -1340.262,436.358 
				-1321.762,424.358 -1303.267,436.358 -1284.771,424.358 -1266.272,436.358 -1247.771,424.358 -1229.273,436.358 
				-1210.773,424.358 -1192.273,436.358 -1173.771,424.358 -1155.273,436.358 -1136.77,424.358 -1118.265,436.358 
				-1099.757,424.358 -1081.25,436.358 			"/>
		</g>
	</g>
</g>
<g>
	
		<line fill="none" stroke="#000000" stroke-width="12" stroke-miterlimit="10" x1="-899.733" y1="107.23" x2="-681.335" y2="107.23"/>
	<polyline fill="none" stroke="#000000" stroke-width="12" stroke-miterlimit="10" points="-681.335,107.23 -790.534,55.609 
		-899.733,107.23 	"/>
	
		<rect x="-877.891" y="107.23" fill="none" stroke="#000000" stroke-width="12" stroke-miterlimit="10" width="172.729" height="55.592"/>
	
		<rect x="-834.213" y="107.23" fill="none" stroke="#000000" stroke-width="12" stroke-miterlimit="10" width="85.374" height="55.592"/>
	
		<rect x="-887.819" y="162.822" fill="none" stroke="#000000" stroke-width="12" stroke-miterlimit="10" width="194.57" height="33.752"/>
	
		<rect x="-890.271" y="197.3" fill="none" stroke="#000000" stroke-width="12" stroke-miterlimit="10" width="199.967" height="13.992"/>
	<line fill="none" stroke="#000000" stroke-width="12" stroke-miterlimit="10" x1="-790" y1="55.609" x2="-790" y2="464.149"/>
	
		<line fill="none" stroke="#000000" stroke-width="12" stroke-miterlimit="10" x1="-736.354" y1="211.103" x2="-704.297" y2="460.056"/>
	
		<line fill="none" stroke="#000000" stroke-width="12" stroke-miterlimit="10" x1="-843.646" y1="210.269" x2="-875.703" y2="459.222"/>
	
		<line fill="none" stroke="#000000" stroke-width="12" stroke-miterlimit="10" x1="-855.39" y1="322.128" x2="-855.39" y2="322.128"/>
	
		<line fill="none" stroke="#000000" stroke-width="12" stroke-miterlimit="10" x1="-859.675" y1="211.103" x2="-891.733" y2="460.056"/>
	
		<line fill="none" stroke="#000000" stroke-width="12" stroke-miterlimit="10" x1="-720.325" y1="211.103" x2="-688.267" y2="460.056"/>
	
		<line fill="none" stroke="#000000" stroke-width="12" stroke-miterlimit="10" x1="-850.286" y1="266.283" x2="-790.875" y2="309.35"/>
	
		<line fill="none" stroke="#000000" stroke-width="12" stroke-miterlimit="10" x1="-855.39" y1="309.35" x2="-790.875" y2="266.283"/>
	
		<line fill="none" stroke="#000000" stroke-width="12" stroke-miterlimit="10" x1="-731.461" y1="266.283" x2="-790.873" y2="309.35"/>
	
		<line fill="none" stroke="#000000" stroke-width="12" stroke-miterlimit="10" x1="-726.358" y1="309.35" x2="-790.873" y2="266.283"/>
	
		<line fill="none" stroke="#000000" stroke-width="12" stroke-miterlimit="10" x1="-859.783" y1="346.411" x2="-790.875" y2="396.439"/>
	
		<line fill="none" stroke="#000000" stroke-width="12" stroke-miterlimit="10" x1="-865.711" y1="396.439" x2="-790.875" y2="346.411"/>
	
		<line fill="none" stroke="#000000" stroke-width="12" stroke-miterlimit="10" x1="-721.78" y1="346.411" x2="-790.688" y2="396.439"/>
	
		<line fill="none" stroke="#000000" stroke-width="12" stroke-miterlimit="10" x1="-715.852" y1="396.439" x2="-790.688" y2="346.411"/>
	
		<line fill="none" stroke="#000000" stroke-width="12" stroke-miterlimit="10" x1="-726.358" y1="35.851" x2="-726.358" y2="84.823"/>
</g>
<g>
	<path fill="#85A647" stroke="#000000" stroke-width="15.2195" stroke-miterlimit="10" d="M-70,439.299
		c0-44.184-89.542-80-200.001-80c-110.456,0-199.999,35.816-199.999,80"/>
	<path fill="#E5C17E" stroke="#000000" stroke-width="14" stroke-miterlimit="10" d="M-171,274.424l9-113.527
		c0-9.332-23.222-21.897-28.429-21.897h-159.144c-5.206,0-29.428,12.565-29.428,21.897l10,113.527v-3.43
		c0,55.264,44.324,100.064,99,100.064s99-44.801,99-100.064"/>
	<line fill="none" stroke="#000000" stroke-width="12" stroke-miterlimit="10" x1="-270" y1="272.689" x2="-270" y2="322.689"/>
	<line fill="none" stroke="#000000" stroke-width="12" stroke-miterlimit="10" x1="-240" y1="277.764" x2="-240" y2="317.764"/>
	<line fill="none" stroke="#000000" stroke-width="12" stroke-miterlimit="10" x1="-300" y1="277.689" x2="-300" y2="317.689"/>
	<circle stroke="#000000" stroke-width="16" stroke-miterlimit="10" cx="-308.801" cy="224.353" r="10.351"/>
	<circle stroke="#000000" stroke-width="16" stroke-miterlimit="10" cx="-231.197" cy="224.353" r="10.35"/>
	<path fill="none" stroke="#000000" stroke-width="14" stroke-miterlimit="10" d="M-165,222.471
		c13.562,0,24.556,10.994,24.556,24.556s-10.994,24.556-24.556,24.556"/>
	<path fill="none" stroke="#000000" stroke-width="14" stroke-miterlimit="10" d="M-375.722,271.582
		c-13.562,0-24.556-10.994-24.556-24.556s10.994-24.556,24.556-24.556"/>
	<line fill="none" stroke="#000000" stroke-width="10" stroke-miterlimit="10" x1="-270" y1="81" x2="-270" y2="181"/>
	<circle stroke="#000000" stroke-width="22" stroke-miterlimit="10" cx="-270" cy="63.051" r="10.351"/>
</g>
<g>
	<path fill="#E5C17E" stroke="#000000" stroke-width="10" stroke-miterlimit="10" d="M355,218.471
		c13.562,0,24.556,10.994,24.556,24.556S368.562,267.582,355,267.582"/>
	<path fill="#E5C17E" stroke="#000000" stroke-width="10" stroke-miterlimit="10" d="M144.278,267.582
		c-13.562,0-24.556-10.994-24.556-24.556s10.994-24.556,24.556-24.556"/>
	<path fill="#85A647" stroke="#000000" stroke-width="12" stroke-miterlimit="10" d="M450,443.299c0-44.184-89.542-80-200.001-80
		c-110.456,0-199.999,35.816-199.999,80"/>
	<path fill="#E5C17E" stroke="#000000" stroke-width="10" stroke-miterlimit="10" d="M349,278.424l9-113.527
		c0-9.332-23.222-21.897-28.429-21.897H170.428C165.222,143,141,155.565,141,164.897l10,113.527v-3.43
		c0,55.264,44.324,100.064,99,100.064s99-44.801,99-100.064"/>
	<circle stroke="#000000" stroke-width="14" stroke-miterlimit="10" cx="211.199" cy="230.353" r="10.351"/>
	<circle stroke="#000000" stroke-width="14" stroke-miterlimit="10" cx="288.803" cy="230.353" r="10.35"/>
</g>
<path stroke="#000000" stroke-width="11.8282" stroke-miterlimit="10" d="M355.368,173.535c20.217-6.586,9.822-38.494,3.671-54.243
	c-3.442-8.811-5.51-19.52-11.95-25.569c-7.088-6.657-18.176-5.664-26.402-8.297c-11.92-3.815-19.999-15.705-31.269-19.998
	c-10.221-3.893-22.673-0.668-32.331,4.548c-13.783,7.444-24.709,12.383-39.032,16.438c-14.172,4.012-8.529,11.682-12.687,26.96
	l-1,12.592c-0.458,20.335,21.251,25.121,31.749,26.582c14.477,2.015,25.262,11.482,38.446,19.587
	c14.514,8.921,23.504,5.444,37.76,1.71c12.352-3.235,28.689,7.717,36.045-8.706"/>
<path stroke="#000000" stroke-width="10.662" stroke-miterlimit="10" d="M211,128.801c0.301-16.991-7.285-22.251-20.805-27.851
	c-13.849-5.735-33.385-10.446-43.489,4.254c-5.847,8.506-11.702,21.323-15.507,30.982c-2.938,7.46-5.098,26.378-1.441,34.097
	c4.535,9.572,22.235,11.708,31.469,8.874c12.352-3.792,17.261-15.478,26.644-22.766c5.763-4.477,24.866-7.646,28.155-13.894
	c4.044-7.681-4.948-19.087-8.025-25.064"/>
<line fill="none" stroke="#000000" stroke-width="10" stroke-miterlimit="10" x1="211.199" y1="298.689" x2="287.803" y2="298.689"/>
</svg>
