<?xml version="1.0" encoding="utf-8"?>
<!-- Generator: Adobe Illustrator 16.0.0, SVG Export Plug-In . SVG Version: 6.00 Build 0)  -->
<!DOCTYPE svg PUBLIC "-//W3C//DTD SVG 1.1//EN" "http://www.w3.org/Graphics/SVG/1.1/DTD/svg11.dtd">
<svg version="1.1" id="Layer_1" xmlns="http://www.w3.org/2000/svg" xmlns:xlink="http://www.w3.org/1999/xlink" x="0px" y="0px"
	 width="500px" height="500px" viewBox="0 0 500 500" enable-background="new 0 0 500 500" xml:space="preserve">
<g>
	<g>
		<path fill="#FFFFFF" stroke="#000000" stroke-width="10" stroke-miterlimit="10" d="M-1310.001,389.959
			c-119.353,0-216.107,30.307-216.107,67.693h432.217C-1093.892,420.266-1190.646,389.959-1310.001,389.959z"/>
		
			<rect x="-1447.672" y="205.544" fill="#FFFFFF" stroke="#000000" stroke-width="10" stroke-miterlimit="10" width="41.003" height="124.073"/>
		
			<rect x="-1213.336" y="205.544" fill="#FFFFFF" stroke="#000000" stroke-width="10" stroke-miterlimit="10" width="41.005" height="124.071"/>
		
			<ellipse fill="#FFFFFF" stroke="#000000" stroke-width="10" stroke-miterlimit="10" cx="-1310.003" cy="267.582" rx="117.168" ry="161.43"/>
		<rect x="-1189.221" y="39.948" width="5" height="165.597"/>
		
			<line fill="none" stroke="#000000" stroke-width="10" stroke-miterlimit="10" x1="-1406.669" y1="176.334" x2="-1213.336" y2="176.334"/>
		
			<line fill="none" stroke="#000000" stroke-width="10" stroke-miterlimit="10" x1="-1406.669" y1="358.711" x2="-1213.336" y2="358.711"/>
		<circle stroke="#000000" stroke-width="10" stroke-miterlimit="10" cx="-1348.805" cy="246.879" r="10.351"/>
		<circle stroke="#000000" stroke-width="10" stroke-miterlimit="10" cx="-1271.201" cy="246.879" r="10.35"/>
	</g>
	<rect x="-1533.022" y="449.653" fill="#FFFFFF" width="446.458" height="20"/>
</g>
<g>
	<g>
		
			<line fill="#FFFFFF" stroke="#000000" stroke-width="10" stroke-miterlimit="10" x1="-987.75" y1="65.674" x2="-987.75" y2="434.326"/>
		<path fill="#FFFFFF" stroke="#000000" stroke-width="10" stroke-miterlimit="10" d="M-987.75,111.674
			c0.23,11.129,17.471,29.356,27,34"/>
		<path fill="#FFFFFF" stroke="#000000" stroke-width="10" stroke-miterlimit="10" d="M-987.75,163.674
			c2.527,15.677-16.374,31.158-29,37"/>
		<path fill="#FFFFFF" stroke="#000000" stroke-width="10" stroke-miterlimit="10" d="M-986.75,216.674
			c-0.528,1.92-0.026,4.835,0.104,6.803c10.191,2.887,19.317,9.075,29.896,11.197"/>
		<path fill="#FFFFFF" stroke="#000000" stroke-width="10" stroke-miterlimit="10" d="M-989.75,274.674
			c-9.609,9.365-19.46,15.034-29,23"/>
		<path fill="#FFFFFF" stroke="#000000" stroke-width="10" stroke-miterlimit="10" d="M-989.75,327.674
			c11.704,5.688,20.401,15.555,32,21"/>
		<path fill="#FFFFFF" stroke="#000000" stroke-width="10" stroke-miterlimit="10" d="M-990.75,379.674
			c-9.035,2.04-17.581,6.896-23,13"/>
	</g>
	<g>
		<polyline fill="none" stroke="#000000" stroke-width="10" stroke-miterlimit="10" points="-786.946,429.732 -843.866,238.705 
			-904.916,434.326 		"/>
		<polyline fill="none" stroke="#000000" stroke-width="10" stroke-miterlimit="10" points="-604.75,430.391 -695.75,136.379 
			-813.25,340.379 		"/>
		
			<line fill="#FFFFFF" stroke="#000000" stroke-width="10" stroke-miterlimit="10" x1="-664.207" y1="239.83" x2="-782.75" y2="433.185"/>
		<g>
			<polyline fill="none" stroke="#000000" stroke-width="10" stroke-miterlimit="10" points="-949.75,424.358 -931.252,436.358 
				-912.755,424.358 -894.258,436.358 -875.76,424.358 -857.261,436.358 -838.761,424.358 -820.262,436.358 -801.762,424.358 
				-783.267,436.358 -764.771,424.358 -746.272,436.358 -727.771,424.358 -709.273,436.358 -690.773,424.358 -672.273,436.358 
				-653.771,424.358 -635.273,436.358 -616.77,424.358 -598.265,436.358 -579.757,424.358 -561.25,436.358 			"/>
		</g>
	</g>
</g>
<g>
	
		<line fill="none" stroke="#000000" stroke-width="12" stroke-miterlimit="10" x1="-379.733" y1="107.23" x2="-161.335" y2="107.23"/>
	<polyline fill="none" stroke="#000000" stroke-width="12" stroke-miterlimit="10" points="-161.335,107.23 -270.534,55.609 
		-379.733,107.23 	"/>
	
		<rect x="-357.891" y="107.23" fill="none" stroke="#000000" stroke-width="12" stroke-miterlimit="10" width="172.729" height="55.592"/>
	
		<rect x="-314.213" y="107.23" fill="none" stroke="#000000" stroke-width="12" stroke-miterlimit="10" width="85.374" height="55.592"/>
	
		<rect x="-367.819" y="162.822" fill="none" stroke="#000000" stroke-width="12" stroke-miterlimit="10" width="194.57" height="33.752"/>
	
		<rect x="-370.271" y="197.3" fill="none" stroke="#000000" stroke-width="12" stroke-miterlimit="10" width="199.967" height="13.992"/>
	<line fill="none" stroke="#000000" stroke-width="12" stroke-miterlimit="10" x1="-270" y1="55.609" x2="-270" y2="464.149"/>
	
		<line fill="none" stroke="#000000" stroke-width="12" stroke-miterlimit="10" x1="-216.354" y1="211.103" x2="-184.297" y2="460.056"/>
	
		<line fill="none" stroke="#000000" stroke-width="12" stroke-miterlimit="10" x1="-323.646" y1="210.269" x2="-355.703" y2="459.222"/>
	
		<line fill="none" stroke="#000000" stroke-width="12" stroke-miterlimit="10" x1="-335.39" y1="322.128" x2="-335.39" y2="322.128"/>
	
		<line fill="none" stroke="#000000" stroke-width="12" stroke-miterlimit="10" x1="-339.675" y1="211.103" x2="-371.733" y2="460.056"/>
	
		<line fill="none" stroke="#000000" stroke-width="12" stroke-miterlimit="10" x1="-200.325" y1="211.103" x2="-168.267" y2="460.056"/>
	
		<line fill="none" stroke="#000000" stroke-width="12" stroke-miterlimit="10" x1="-330.286" y1="266.283" x2="-270.875" y2="309.35"/>
	
		<line fill="none" stroke="#000000" stroke-width="12" stroke-miterlimit="10" x1="-335.39" y1="309.35" x2="-270.875" y2="266.283"/>
	
		<line fill="none" stroke="#000000" stroke-width="12" stroke-miterlimit="10" x1="-211.461" y1="266.283" x2="-270.873" y2="309.35"/>
	
		<line fill="none" stroke="#000000" stroke-width="12" stroke-miterlimit="10" x1="-206.358" y1="309.35" x2="-270.873" y2="266.283"/>
	
		<line fill="none" stroke="#000000" stroke-width="12" stroke-miterlimit="10" x1="-339.783" y1="346.411" x2="-270.875" y2="396.439"/>
	
		<line fill="none" stroke="#000000" stroke-width="12" stroke-miterlimit="10" x1="-345.711" y1="396.439" x2="-270.875" y2="346.411"/>
	
		<line fill="none" stroke="#000000" stroke-width="12" stroke-miterlimit="10" x1="-201.78" y1="346.411" x2="-270.688" y2="396.439"/>
	
		<line fill="none" stroke="#000000" stroke-width="12" stroke-miterlimit="10" x1="-195.852" y1="396.439" x2="-270.688" y2="346.411"/>
	
		<line fill="none" stroke="#000000" stroke-width="12" stroke-miterlimit="10" x1="-206.358" y1="35.851" x2="-206.358" y2="84.823"/>
</g>
<g>
	<path fill="#85A647" stroke="#000000" stroke-width="15.2195" stroke-miterlimit="10" d="M450,439.299
		c0-44.184-89.542-80-200.001-80c-110.456,0-199.999,35.816-199.999,80"/>
	<path fill="#E5C17E" stroke="#000000" stroke-width="14" stroke-miterlimit="10" d="M349,274.424l9-113.527
		c0-9.332-23.222-21.897-28.429-21.897H170.428C165.222,139,141,151.565,141,160.897l10,113.527v-3.43
		c0,55.264,44.324,100.064,99,100.064s99-44.801,99-100.064"/>
	<line fill="none" stroke="#000000" stroke-width="12" stroke-miterlimit="10" x1="250" y1="272.689" x2="250" y2="322.689"/>
	<line fill="none" stroke="#000000" stroke-width="12" stroke-miterlimit="10" x1="280" y1="277.764" x2="280" y2="317.764"/>
	<line fill="none" stroke="#000000" stroke-width="12" stroke-miterlimit="10" x1="220" y1="277.689" x2="220" y2="317.689"/>
	<circle stroke="#000000" stroke-width="16" stroke-miterlimit="10" cx="211.199" cy="224.353" r="10.351"/>
	<circle stroke="#000000" stroke-width="16" stroke-miterlimit="10" cx="288.803" cy="224.353" r="10.35"/>
	<path fill="none" stroke="#000000" stroke-width="14" stroke-miterlimit="10" d="M355,222.471
		c13.562,0,24.556,10.994,24.556,24.556S368.562,271.582,355,271.582"/>
	<path fill="none" stroke="#000000" stroke-width="14" stroke-miterlimit="10" d="M144.278,271.582
		c-13.562,0-24.556-10.994-24.556-24.556s10.994-24.556,24.556-24.556"/>
	<line fill="none" stroke="#000000" stroke-width="10" stroke-miterlimit="10" x1="250" y1="81" x2="250" y2="181"/>
	<circle stroke="#000000" stroke-width="22" stroke-miterlimit="10" cx="250" cy="63.051" r="10.351"/>
</g>
</svg>
