<?xml version="1.0" encoding="utf-8"?>
<!-- Generator: Adobe Illustrator 16.0.0, SVG Export Plug-In . SVG Version: 6.00 Build 0)  -->
<!DOCTYPE svg PUBLIC "-//W3C//DTD SVG 1.1//EN" "http://www.w3.org/Graphics/SVG/1.1/DTD/svg11.dtd">
<svg version="1.1" id="Layer_1" xmlns="http://www.w3.org/2000/svg" xmlns:xlink="http://www.w3.org/1999/xlink" x="0px" y="0px"
	 width="500px" height="500px" viewBox="0 0 500 500" enable-background="new 0 0 500 500" xml:space="preserve">
<g>
	<g>
		<path fill="#FFFFFF" stroke="#000000" stroke-width="10" stroke-miterlimit="10" d="M-2870.001,389.959
			c-119.353,0-216.107,30.307-216.107,67.693h432.217C-2653.892,420.266-2750.646,389.959-2870.001,389.959z"/>
		
			<rect x="-3007.672" y="205.544" fill="#FFFFFF" stroke="#000000" stroke-width="10" stroke-miterlimit="10" width="41.003" height="124.073"/>
		
			<rect x="-2773.336" y="205.544" fill="#FFFFFF" stroke="#000000" stroke-width="10" stroke-miterlimit="10" width="41.005" height="124.071"/>
		
			<ellipse fill="#FFFFFF" stroke="#000000" stroke-width="10" stroke-miterlimit="10" cx="-2870.003" cy="267.582" rx="117.168" ry="161.43"/>
		<rect x="-2749.221" y="39.948" width="5" height="165.597"/>
		
			<line fill="none" stroke="#000000" stroke-width="10" stroke-miterlimit="10" x1="-2966.669" y1="176.334" x2="-2773.336" y2="176.334"/>
		
			<line fill="none" stroke="#000000" stroke-width="10" stroke-miterlimit="10" x1="-2966.669" y1="358.711" x2="-2773.336" y2="358.711"/>
		<circle stroke="#000000" stroke-width="10" stroke-miterlimit="10" cx="-2908.805" cy="246.879" r="10.351"/>
		<circle stroke="#000000" stroke-width="10" stroke-miterlimit="10" cx="-2831.201" cy="246.879" r="10.35"/>
	</g>
	<rect x="-3093.022" y="449.653" fill="#FFFFFF" width="446.458" height="20"/>
</g>
<g>
	<g>
		
			<line fill="#FFFFFF" stroke="#000000" stroke-width="10" stroke-miterlimit="10" x1="-2547.75" y1="65.674" x2="-2547.75" y2="434.326"/>
		<path fill="#FFFFFF" stroke="#000000" stroke-width="10" stroke-miterlimit="10" d="M-2547.75,111.674
			c0.23,11.129,17.471,29.356,27,34"/>
		<path fill="#FFFFFF" stroke="#000000" stroke-width="10" stroke-miterlimit="10" d="M-2547.75,163.674
			c2.527,15.677-16.374,31.158-29,37"/>
		<path fill="#FFFFFF" stroke="#000000" stroke-width="10" stroke-miterlimit="10" d="M-2546.75,216.674
			c-0.528,1.92-0.026,4.835,0.104,6.803c10.191,2.887,19.317,9.075,29.896,11.197"/>
		<path fill="#FFFFFF" stroke="#000000" stroke-width="10" stroke-miterlimit="10" d="M-2549.75,274.674
			c-9.609,9.365-19.46,15.034-29,23"/>
		<path fill="#FFFFFF" stroke="#000000" stroke-width="10" stroke-miterlimit="10" d="M-2549.75,327.674
			c11.704,5.688,20.401,15.555,32,21"/>
		<path fill="#FFFFFF" stroke="#000000" stroke-width="10" stroke-miterlimit="10" d="M-2550.75,379.674
			c-9.035,2.04-17.581,6.896-23,13"/>
	</g>
	<g>
		<polyline fill="none" stroke="#000000" stroke-width="10" stroke-miterlimit="10" points="-2346.946,429.732 -2403.866,238.705 
			-2464.916,434.326 		"/>
		<polyline fill="none" stroke="#000000" stroke-width="10" stroke-miterlimit="10" points="-2164.75,430.391 -2255.75,136.379 
			-2373.25,340.379 		"/>
		
			<line fill="#FFFFFF" stroke="#000000" stroke-width="10" stroke-miterlimit="10" x1="-2224.207" y1="239.83" x2="-2342.75" y2="433.185"/>
		<g>
			<polyline fill="none" stroke="#000000" stroke-width="10" stroke-miterlimit="10" points="-2509.75,424.358 -2491.252,436.358 
				-2472.755,424.358 -2454.258,436.358 -2435.76,424.358 -2417.261,436.358 -2398.761,424.358 -2380.262,436.358 
				-2361.762,424.358 -2343.267,436.358 -2324.771,424.358 -2306.272,436.358 -2287.771,424.358 -2269.273,436.358 
				-2250.773,424.358 -2232.273,436.358 -2213.771,424.358 -2195.273,436.358 -2176.77,424.358 -2158.265,436.358 
				-2139.757,424.358 -2121.25,436.358 			"/>
		</g>
	</g>
</g>
<g>
	
		<line fill="none" stroke="#000000" stroke-width="12" stroke-miterlimit="10" x1="-1939.733" y1="107.23" x2="-1721.335" y2="107.23"/>
	<polyline fill="none" stroke="#000000" stroke-width="12" stroke-miterlimit="10" points="-1721.335,107.23 -1830.534,55.609 
		-1939.733,107.23 	"/>
	
		<rect x="-1917.891" y="107.23" fill="none" stroke="#000000" stroke-width="12" stroke-miterlimit="10" width="172.729" height="55.592"/>
	
		<rect x="-1874.213" y="107.23" fill="none" stroke="#000000" stroke-width="12" stroke-miterlimit="10" width="85.374" height="55.592"/>
	
		<rect x="-1927.819" y="162.822" fill="none" stroke="#000000" stroke-width="12" stroke-miterlimit="10" width="194.57" height="33.752"/>
	
		<rect x="-1930.271" y="197.3" fill="none" stroke="#000000" stroke-width="12" stroke-miterlimit="10" width="199.967" height="13.992"/>
	<line fill="none" stroke="#000000" stroke-width="12" stroke-miterlimit="10" x1="-1830" y1="55.609" x2="-1830" y2="464.149"/>
	
		<line fill="none" stroke="#000000" stroke-width="12" stroke-miterlimit="10" x1="-1776.354" y1="211.103" x2="-1744.297" y2="460.056"/>
	
		<line fill="none" stroke="#000000" stroke-width="12" stroke-miterlimit="10" x1="-1883.646" y1="210.269" x2="-1915.703" y2="459.222"/>
	
		<line fill="none" stroke="#000000" stroke-width="12" stroke-miterlimit="10" x1="-1895.39" y1="322.128" x2="-1895.39" y2="322.128"/>
	
		<line fill="none" stroke="#000000" stroke-width="12" stroke-miterlimit="10" x1="-1899.675" y1="211.103" x2="-1931.733" y2="460.056"/>
	
		<line fill="none" stroke="#000000" stroke-width="12" stroke-miterlimit="10" x1="-1760.325" y1="211.103" x2="-1728.267" y2="460.056"/>
	
		<line fill="none" stroke="#000000" stroke-width="12" stroke-miterlimit="10" x1="-1890.286" y1="266.283" x2="-1830.875" y2="309.35"/>
	
		<line fill="none" stroke="#000000" stroke-width="12" stroke-miterlimit="10" x1="-1895.39" y1="309.35" x2="-1830.875" y2="266.283"/>
	
		<line fill="none" stroke="#000000" stroke-width="12" stroke-miterlimit="10" x1="-1771.461" y1="266.283" x2="-1830.873" y2="309.35"/>
	
		<line fill="none" stroke="#000000" stroke-width="12" stroke-miterlimit="10" x1="-1766.358" y1="309.35" x2="-1830.873" y2="266.283"/>
	
		<line fill="none" stroke="#000000" stroke-width="12" stroke-miterlimit="10" x1="-1899.783" y1="346.411" x2="-1830.875" y2="396.439"/>
	
		<line fill="none" stroke="#000000" stroke-width="12" stroke-miterlimit="10" x1="-1905.711" y1="396.439" x2="-1830.875" y2="346.411"/>
	
		<line fill="none" stroke="#000000" stroke-width="12" stroke-miterlimit="10" x1="-1761.78" y1="346.411" x2="-1830.688" y2="396.439"/>
	
		<line fill="none" stroke="#000000" stroke-width="12" stroke-miterlimit="10" x1="-1755.852" y1="396.439" x2="-1830.688" y2="346.411"/>
	
		<line fill="none" stroke="#000000" stroke-width="12" stroke-miterlimit="10" x1="-1766.358" y1="35.851" x2="-1766.358" y2="84.823"/>
</g>
<g>
	<path fill="#85A647" stroke="#000000" stroke-width="15.2195" stroke-miterlimit="10" d="M-1110,439.299
		c0-44.184-89.542-80-200.001-80c-110.456,0-199.999,35.816-199.999,80"/>
	<path fill="#E5C17E" stroke="#000000" stroke-width="14" stroke-miterlimit="10" d="M-1211,274.424l9-113.527
		c0-9.332-23.222-21.897-28.429-21.897h-159.144c-5.206,0-29.428,12.565-29.428,21.897l10,113.527v-3.43
		c0,55.264,44.324,100.064,99,100.064s99-44.801,99-100.064"/>
	<line fill="none" stroke="#000000" stroke-width="12" stroke-miterlimit="10" x1="-1310" y1="272.689" x2="-1310" y2="322.689"/>
	<line fill="none" stroke="#000000" stroke-width="12" stroke-miterlimit="10" x1="-1280" y1="277.764" x2="-1280" y2="317.764"/>
	<line fill="none" stroke="#000000" stroke-width="12" stroke-miterlimit="10" x1="-1340" y1="277.689" x2="-1340" y2="317.689"/>
	<circle stroke="#000000" stroke-width="16" stroke-miterlimit="10" cx="-1348.801" cy="224.353" r="10.351"/>
	<circle stroke="#000000" stroke-width="16" stroke-miterlimit="10" cx="-1271.197" cy="224.353" r="10.35"/>
	<path fill="none" stroke="#000000" stroke-width="14" stroke-miterlimit="10" d="M-1205,222.471
		c13.562,0,24.556,10.994,24.556,24.556s-10.994,24.556-24.556,24.556"/>
	<path fill="none" stroke="#000000" stroke-width="14" stroke-miterlimit="10" d="M-1415.722,271.582
		c-13.562,0-24.556-10.994-24.556-24.556s10.994-24.556,24.556-24.556"/>
	<line fill="none" stroke="#000000" stroke-width="10" stroke-miterlimit="10" x1="-1310" y1="81" x2="-1310" y2="181"/>
	<circle stroke="#000000" stroke-width="22" stroke-miterlimit="10" cx="-1310" cy="63.051" r="10.351"/>
</g>
<g>
	<path fill="#E5C17E" stroke="#000000" stroke-width="10" stroke-miterlimit="10" d="M-685,218.471
		c13.562,0,24.556,10.994,24.556,24.556s-10.994,24.556-24.556,24.556"/>
	<path fill="#E5C17E" stroke="#000000" stroke-width="10" stroke-miterlimit="10" d="M-895.722,267.582
		c-13.562,0-24.556-10.994-24.556-24.556s10.994-24.556,24.556-24.556"/>
	<path fill="#85A647" stroke="#000000" stroke-width="12" stroke-miterlimit="10" d="M-590,443.299c0-44.184-89.542-80-200.001-80
		c-110.456,0-199.999,35.816-199.999,80"/>
	<path fill="#E5C17E" stroke="#000000" stroke-width="10" stroke-miterlimit="10" d="M-691,278.424l9-113.527
		c0-9.332-23.222-21.897-28.429-21.897h-159.144c-5.206,0-29.428,12.565-29.428,21.897l10,113.527v-3.43
		c0,55.264,44.324,100.064,99,100.064s99-44.801,99-100.064"/>
	<circle stroke="#000000" stroke-width="14" stroke-miterlimit="10" cx="-828.801" cy="230.353" r="10.351"/>
	<circle stroke="#000000" stroke-width="14" stroke-miterlimit="10" cx="-751.197" cy="230.353" r="10.35"/>
</g>
<path stroke="#000000" stroke-width="11.8282" stroke-miterlimit="10" d="M-684.632,173.535c20.217-6.586,9.822-38.494,3.671-54.243
	c-3.442-8.811-5.51-19.52-11.95-25.569c-7.088-6.657-18.176-5.664-26.402-8.297c-11.92-3.815-19.999-15.705-31.269-19.998
	c-10.221-3.893-22.673-0.668-32.331,4.548c-13.783,7.444-24.709,12.383-39.032,16.438c-14.172,4.012-8.529,11.682-12.687,26.96
	l-1,12.592c-0.458,20.335,21.251,25.121,31.749,26.582c14.477,2.015,25.262,11.482,38.446,19.587
	c14.514,8.921,23.504,5.444,37.76,1.71c12.352-3.235,28.689,7.717,36.045-8.706"/>
<path stroke="#000000" stroke-width="10.662" stroke-miterlimit="10" d="M-829,128.801c0.301-16.991-7.285-22.251-20.805-27.851
	c-13.849-5.735-33.385-10.446-43.489,4.254c-5.847,8.506-11.702,21.323-15.507,30.982c-2.938,7.46-5.098,26.378-1.441,34.097
	c4.535,9.572,22.235,11.708,31.469,8.874c12.352-3.792,17.261-15.478,26.644-22.766c5.763-4.477,24.866-7.646,28.155-13.894
	c4.044-7.681-4.948-19.087-8.025-25.064"/>
<line fill="none" stroke="#000000" stroke-width="10" stroke-miterlimit="10" x1="-828.801" y1="298.689" x2="-752.197" y2="298.689"/>
<g>
	<defs>
		<rect id="SVGID_1_" x="-470" y="50" width="400" height="400"/>
	</defs>
	<clipPath id="SVGID_2_">
		<use xlink:href="#SVGID_1_"  overflow="visible"/>
	</clipPath>
	<path clip-path="url(#SVGID_2_)" fill="#84A544" d="M-307.934,143.75C-311.016,119.092-332.009,100-357.5,100
		s-46.487,19.092-49.566,43.75H-457.5v12.5h50.434c3.079,24.658,24.075,43.75,49.566,43.75s46.484-19.092,49.566-43.75H-82.5v-12.5
		H-307.934z M-357.5,162.5c-6.903,0-12.5-5.597-12.5-12.5s5.597-12.5,12.5-12.5s12.5,5.597,12.5,12.5S-350.597,162.5-357.5,162.5"/>
	<path clip-path="url(#SVGID_2_)" fill="#84A544" d="M-182.5,200c-25.491,0-46.487,19.092-49.569,43.75H-457.5v12.5h225.431
		c3.082,24.655,24.078,43.75,49.569,43.75s46.484-19.095,49.569-43.75H-82.5v-12.5h-50.431C-136.016,219.092-157.009,200-182.5,200
		 M-182.5,262.5c-6.903,0-12.5-5.597-12.5-12.5s5.597-12.5,12.5-12.5s12.5,5.597,12.5,12.5S-175.597,262.5-182.5,262.5"/>
	<path clip-path="url(#SVGID_2_)" fill="#84A544" d="M-357.5,300c-25.491,0-46.487,19.095-49.566,43.75H-457.5v12.5h50.434
		c3.079,24.655,24.075,43.75,49.566,43.75s46.484-19.095,49.566-43.75H-82.5v-12.5h-225.434C-311.016,319.095-332.009,300-357.5,300
		 M-357.5,362.5c-6.903,0-12.5-5.597-12.5-12.5s5.597-12.5,12.5-12.5s12.5,5.597,12.5,12.5S-350.597,362.5-357.5,362.5"/>
</g>
<polygon points="198.474,-19 178.474,-19 188.474,-139 "/>
<circle cx="188.474" cy="-133.98" r="15"/>
<polygon points="188.474,-75.717 157.224,-85.717 188.474,-95.717 219.724,-85.717 "/>
<polygon points="188.474,-40.434 148.474,-50.434 188.474,-60.434 228.474,-50.434 "/>
<polyline points="387.915,-131.98 367.915,-120.98 347.915,-122.98 347.915,-113.98 347.915,-104.98 367.915,-106.98 
	387.915,-95.98 "/>
<rect x="342.915" y="-133.98" width="16" height="40"/>
<polygon points="679.63,34.422 657.63,34.422 657.503,34.61 646.79,53.165 624.048,30.422 624.013,30.458 617.146,23.592 
	614.312,20.936 612.526,23.949 600.026,45.6 593.442,57.005 591.856,54.26 584.356,41.27 583.978,41.27 561.978,41.27 
	561.978,51.27 578.583,51.27 583.196,59.26 587.669,67.005 587.952,67.496 590.696,72.25 593.478,77.103 596.188,72.25 
	598.933,67.495 599.216,67.006 608.688,50.6 616.493,37.081 638.36,58.948 638.396,58.912 645.263,65.778 648.812,69.436 
	651.163,65.59 663.386,44.422 679.63,44.422 "/>
<g>
	<path fill="#85A647" stroke="#000000" stroke-width="20" stroke-miterlimit="10" d="M450,474.194c0-44.184-89.542-80-200.001-80
		c-110.456,0-199.999,35.816-199.999,80"/>
	<g>
		<path fill="#E5C17E" stroke="#000000" stroke-width="18.8376" stroke-miterlimit="10" d="M340.299,332.046
			c0,18.646-6.009,33.76-24.652,33.76H184.354c-18.644,0-24.652-15.113-24.652-33.76L144.51,188.581
			c0-18.644,15.112-33.756,33.758-33.756h143.465c18.646,0,33.758,15.113,33.758,33.756L340.299,332.046z"/>
		<circle stroke="#000000" stroke-width="15.2876" stroke-miterlimit="10" cx="211.57" cy="233.001" r="11.302"/>
		<circle stroke="#000000" stroke-width="15.2891" stroke-miterlimit="10" cx="288.43" cy="233.001" r="11.302"/>
		<g>
			<polygon points="376.918,250.453 389.633,249.182 389.633,232.086 412.24,232.086 412.24,288.6 389.633,288.6 389.633,271.504 
				376.918,270.232 348.66,285.773 348.66,234.912 			"/>
			<polygon points="123.082,247.6 110.367,246.328 110.367,229.233 87.76,229.233 87.76,285.746 110.367,285.746 110.367,268.65 
				123.082,267.379 151.34,282.92 151.34,232.059 			"/>
		</g>
		<polygon points="268.683,151.999 231.007,151.999 249.845,38.974 		"/>
		<circle cx="249.845" cy="44.643" r="21"/>
		<polygon points="249.845,99.16 209.844,89.16 249.845,79.16 289.844,89.16 		"/>
		<polygon points="249.845,134.393 199.844,122.392 249.845,110.393 299.844,122.392 		"/>
		<path d="M296.813,299.223c-0.542-1.803-1.863-3.422-3.826-4.43c-1.962-1.007-4.199-1.211-6.228-0.729
			c-2.03,0.484-3.854,1.656-4.985,3.402l-6.855,10.554h-49.838l-6.855-10.554c-1.134-1.744-2.955-2.918-4.985-3.4
			c-2.028-0.483-4.266-0.279-6.228,0.73c-1.963,1.005-3.284,2.624-3.826,4.429s-0.312,3.791,0.821,5.537l13.211,20.338l0.099-0.048
			v0.224h64.703v-0.567l0.761,0.392l13.211-20.338C297.126,303.016,297.355,301.029,296.813,299.223z"/>
	</g>
</g>
<rect x="501.017" y="-116.1" width="80" height="24"/>
<path d="M564.379-102.491l16.335-28.292c1.4-2.428,3.653-4.057,6.162-4.729c2.51-0.673,5.275-0.388,7.702,1.015l0,0l0,0
	c2.427,1.4,4.057,3.652,4.729,6.162c0.672,2.51,0.387,5.274-1.015,7.702l-16.335,28.292"/>
<path d="M500.895-92.342l-16.335-28.292c-1.401-2.427-1.687-5.191-1.015-7.701c0.673-2.51,2.303-4.762,4.729-6.162l0,0l0,0
	c2.427-1.402,5.192-1.688,7.702-1.015c2.509,0.673,4.761,2.302,6.162,4.729l16.334,28.292"/>
</svg>
