<?xml version="1.0" encoding="utf-8"?>
<!-- Generator: Adobe Illustrator 16.0.0, SVG Export Plug-In . SVG Version: 6.00 Build 0)  -->
<!DOCTYPE svg PUBLIC "-//W3C//DTD SVG 1.1//EN" "http://www.w3.org/Graphics/SVG/1.1/DTD/svg11.dtd">
<svg version="1.1" id="Layer_1" xmlns="http://www.w3.org/2000/svg" xmlns:xlink="http://www.w3.org/1999/xlink" x="0px" y="0px"
	 width="500px" height="500px" viewBox="0 0 500 500" enable-background="new 0 0 500 500" xml:space="preserve">
<g>
	<g>
		<path fill="#FFFFFF" stroke="#000000" stroke-width="10" stroke-miterlimit="10" d="M-2870.001,389.959
			c-119.353,0-216.107,30.307-216.107,67.693h432.217C-2653.892,420.266-2750.646,389.959-2870.001,389.959z"/>
		
			<rect x="-3007.672" y="205.544" fill="#FFFFFF" stroke="#000000" stroke-width="10" stroke-miterlimit="10" width="41.003" height="124.073"/>
		
			<rect x="-2773.336" y="205.544" fill="#FFFFFF" stroke="#000000" stroke-width="10" stroke-miterlimit="10" width="41.005" height="124.071"/>
		
			<ellipse fill="#FFFFFF" stroke="#000000" stroke-width="10" stroke-miterlimit="10" cx="-2870.003" cy="267.582" rx="117.168" ry="161.43"/>
		<rect x="-2749.221" y="39.948" width="5" height="165.597"/>
		
			<line fill="none" stroke="#000000" stroke-width="10" stroke-miterlimit="10" x1="-2966.669" y1="176.334" x2="-2773.336" y2="176.334"/>
		
			<line fill="none" stroke="#000000" stroke-width="10" stroke-miterlimit="10" x1="-2966.669" y1="358.711" x2="-2773.336" y2="358.711"/>
		<circle stroke="#000000" stroke-width="10" stroke-miterlimit="10" cx="-2908.805" cy="246.879" r="10.351"/>
		<circle stroke="#000000" stroke-width="10" stroke-miterlimit="10" cx="-2831.201" cy="246.879" r="10.35"/>
	</g>
	<rect x="-3093.022" y="449.653" fill="#FFFFFF" width="446.458" height="20"/>
</g>
<g>
	<g>
		
			<line fill="#FFFFFF" stroke="#000000" stroke-width="10" stroke-miterlimit="10" x1="-2547.75" y1="65.674" x2="-2547.75" y2="434.326"/>
		<path fill="#FFFFFF" stroke="#000000" stroke-width="10" stroke-miterlimit="10" d="M-2547.75,111.674
			c0.23,11.129,17.471,29.356,27,34"/>
		<path fill="#FFFFFF" stroke="#000000" stroke-width="10" stroke-miterlimit="10" d="M-2547.75,163.674
			c2.527,15.677-16.374,31.158-29,37"/>
		<path fill="#FFFFFF" stroke="#000000" stroke-width="10" stroke-miterlimit="10" d="M-2546.75,216.674
			c-0.528,1.92-0.026,4.835,0.104,6.803c10.191,2.887,19.317,9.075,29.896,11.197"/>
		<path fill="#FFFFFF" stroke="#000000" stroke-width="10" stroke-miterlimit="10" d="M-2549.75,274.674
			c-9.609,9.365-19.46,15.034-29,23"/>
		<path fill="#FFFFFF" stroke="#000000" stroke-width="10" stroke-miterlimit="10" d="M-2549.75,327.674
			c11.704,5.688,20.401,15.555,32,21"/>
		<path fill="#FFFFFF" stroke="#000000" stroke-width="10" stroke-miterlimit="10" d="M-2550.75,379.674
			c-9.035,2.04-17.581,6.896-23,13"/>
	</g>
	<g>
		<polyline fill="none" stroke="#000000" stroke-width="10" stroke-miterlimit="10" points="-2346.946,429.732 -2403.866,238.705 
			-2464.916,434.326 		"/>
		<polyline fill="none" stroke="#000000" stroke-width="10" stroke-miterlimit="10" points="-2164.75,430.391 -2255.75,136.379 
			-2373.25,340.379 		"/>
		
			<line fill="#FFFFFF" stroke="#000000" stroke-width="10" stroke-miterlimit="10" x1="-2224.207" y1="239.83" x2="-2342.75" y2="433.185"/>
		<g>
			<polyline fill="none" stroke="#000000" stroke-width="10" stroke-miterlimit="10" points="-2509.75,424.358 -2491.252,436.358 
				-2472.755,424.358 -2454.258,436.358 -2435.76,424.358 -2417.261,436.358 -2398.761,424.358 -2380.262,436.358 
				-2361.762,424.358 -2343.267,436.358 -2324.771,424.358 -2306.272,436.358 -2287.771,424.358 -2269.273,436.358 
				-2250.773,424.358 -2232.273,436.358 -2213.771,424.358 -2195.273,436.358 -2176.77,424.358 -2158.265,436.358 
				-2139.757,424.358 -2121.25,436.358 			"/>
		</g>
	</g>
</g>
<g>
	
		<line fill="none" stroke="#000000" stroke-width="12" stroke-miterlimit="10" x1="-1939.733" y1="107.23" x2="-1721.335" y2="107.23"/>
	<polyline fill="none" stroke="#000000" stroke-width="12" stroke-miterlimit="10" points="-1721.335,107.23 -1830.534,55.609 
		-1939.733,107.23 	"/>
	
		<rect x="-1917.891" y="107.23" fill="none" stroke="#000000" stroke-width="12" stroke-miterlimit="10" width="172.729" height="55.592"/>
	
		<rect x="-1874.213" y="107.23" fill="none" stroke="#000000" stroke-width="12" stroke-miterlimit="10" width="85.374" height="55.592"/>
	
		<rect x="-1927.819" y="162.822" fill="none" stroke="#000000" stroke-width="12" stroke-miterlimit="10" width="194.57" height="33.752"/>
	
		<rect x="-1930.271" y="197.3" fill="none" stroke="#000000" stroke-width="12" stroke-miterlimit="10" width="199.967" height="13.992"/>
	<line fill="none" stroke="#000000" stroke-width="12" stroke-miterlimit="10" x1="-1830" y1="55.609" x2="-1830" y2="464.149"/>
	
		<line fill="none" stroke="#000000" stroke-width="12" stroke-miterlimit="10" x1="-1776.354" y1="211.103" x2="-1744.297" y2="460.056"/>
	
		<line fill="none" stroke="#000000" stroke-width="12" stroke-miterlimit="10" x1="-1883.646" y1="210.269" x2="-1915.703" y2="459.222"/>
	
		<line fill="none" stroke="#000000" stroke-width="12" stroke-miterlimit="10" x1="-1895.39" y1="322.128" x2="-1895.39" y2="322.128"/>
	
		<line fill="none" stroke="#000000" stroke-width="12" stroke-miterlimit="10" x1="-1899.675" y1="211.103" x2="-1931.733" y2="460.056"/>
	
		<line fill="none" stroke="#000000" stroke-width="12" stroke-miterlimit="10" x1="-1760.325" y1="211.103" x2="-1728.267" y2="460.056"/>
	
		<line fill="none" stroke="#000000" stroke-width="12" stroke-miterlimit="10" x1="-1890.286" y1="266.283" x2="-1830.875" y2="309.35"/>
	
		<line fill="none" stroke="#000000" stroke-width="12" stroke-miterlimit="10" x1="-1895.39" y1="309.35" x2="-1830.875" y2="266.283"/>
	
		<line fill="none" stroke="#000000" stroke-width="12" stroke-miterlimit="10" x1="-1771.461" y1="266.283" x2="-1830.873" y2="309.35"/>
	
		<line fill="none" stroke="#000000" stroke-width="12" stroke-miterlimit="10" x1="-1766.358" y1="309.35" x2="-1830.873" y2="266.283"/>
	
		<line fill="none" stroke="#000000" stroke-width="12" stroke-miterlimit="10" x1="-1899.783" y1="346.411" x2="-1830.875" y2="396.439"/>
	
		<line fill="none" stroke="#000000" stroke-width="12" stroke-miterlimit="10" x1="-1905.711" y1="396.439" x2="-1830.875" y2="346.411"/>
	
		<line fill="none" stroke="#000000" stroke-width="12" stroke-miterlimit="10" x1="-1761.78" y1="346.411" x2="-1830.688" y2="396.439"/>
	
		<line fill="none" stroke="#000000" stroke-width="12" stroke-miterlimit="10" x1="-1755.852" y1="396.439" x2="-1830.688" y2="346.411"/>
	
		<line fill="none" stroke="#000000" stroke-width="12" stroke-miterlimit="10" x1="-1766.358" y1="35.851" x2="-1766.358" y2="84.823"/>
</g>
<g>
	<path fill="#85A647" stroke="#000000" stroke-width="15.2195" stroke-miterlimit="10" d="M-1110,439.299
		c0-44.184-89.542-80-200.001-80c-110.456,0-199.999,35.816-199.999,80"/>
	<path fill="#E5C17E" stroke="#000000" stroke-width="14" stroke-miterlimit="10" d="M-1211,274.424l9-113.527
		c0-9.332-23.222-21.897-28.429-21.897h-159.144c-5.206,0-29.428,12.565-29.428,21.897l10,113.527v-3.43
		c0,55.264,44.324,100.064,99,100.064s99-44.801,99-100.064"/>
	<line fill="none" stroke="#000000" stroke-width="12" stroke-miterlimit="10" x1="-1310" y1="272.689" x2="-1310" y2="322.689"/>
	<line fill="none" stroke="#000000" stroke-width="12" stroke-miterlimit="10" x1="-1280" y1="277.764" x2="-1280" y2="317.764"/>
	<line fill="none" stroke="#000000" stroke-width="12" stroke-miterlimit="10" x1="-1340" y1="277.689" x2="-1340" y2="317.689"/>
	<circle stroke="#000000" stroke-width="16" stroke-miterlimit="10" cx="-1348.801" cy="224.353" r="10.351"/>
	<circle stroke="#000000" stroke-width="16" stroke-miterlimit="10" cx="-1271.197" cy="224.353" r="10.35"/>
	<path fill="none" stroke="#000000" stroke-width="14" stroke-miterlimit="10" d="M-1205,222.471
		c13.562,0,24.556,10.994,24.556,24.556s-10.994,24.556-24.556,24.556"/>
	<path fill="none" stroke="#000000" stroke-width="14" stroke-miterlimit="10" d="M-1415.722,271.582
		c-13.562,0-24.556-10.994-24.556-24.556s10.994-24.556,24.556-24.556"/>
	<line fill="none" stroke="#000000" stroke-width="10" stroke-miterlimit="10" x1="-1310" y1="81" x2="-1310" y2="181"/>
	<circle stroke="#000000" stroke-width="22" stroke-miterlimit="10" cx="-1310" cy="63.051" r="10.351"/>
</g>
<g>
	<path fill="#E5C17E" stroke="#000000" stroke-width="10" stroke-miterlimit="10" d="M-685,218.471
		c13.562,0,24.556,10.994,24.556,24.556s-10.994,24.556-24.556,24.556"/>
	<path fill="#E5C17E" stroke="#000000" stroke-width="10" stroke-miterlimit="10" d="M-895.722,267.582
		c-13.562,0-24.556-10.994-24.556-24.556s10.994-24.556,24.556-24.556"/>
	<path fill="#85A647" stroke="#000000" stroke-width="12" stroke-miterlimit="10" d="M-590,443.299c0-44.184-89.542-80-200.001-80
		c-110.456,0-199.999,35.816-199.999,80"/>
	<path fill="#E5C17E" stroke="#000000" stroke-width="10" stroke-miterlimit="10" d="M-691,278.424l9-113.527
		c0-9.332-23.222-21.897-28.429-21.897h-159.144c-5.206,0-29.428,12.565-29.428,21.897l10,113.527v-3.43
		c0,55.264,44.324,100.064,99,100.064s99-44.801,99-100.064"/>
	<circle stroke="#000000" stroke-width="14" stroke-miterlimit="10" cx="-828.801" cy="230.353" r="10.351"/>
	<circle stroke="#000000" stroke-width="14" stroke-miterlimit="10" cx="-751.197" cy="230.353" r="10.35"/>
</g>
<path stroke="#000000" stroke-width="11.8282" stroke-miterlimit="10" d="M-684.632,173.535c20.217-6.586,9.822-38.494,3.671-54.243
	c-3.442-8.811-5.51-19.52-11.95-25.569c-7.088-6.657-18.176-5.664-26.402-8.297c-11.92-3.815-19.999-15.705-31.269-19.998
	c-10.221-3.893-22.673-0.668-32.331,4.548c-13.783,7.444-24.709,12.383-39.032,16.438c-14.172,4.012-8.529,11.682-12.687,26.96
	l-1,12.592c-0.458,20.335,21.251,25.121,31.749,26.582c14.477,2.015,25.262,11.482,38.446,19.587
	c14.514,8.921,23.504,5.444,37.76,1.71c12.352-3.235,28.689,7.717,36.045-8.706"/>
<path stroke="#000000" stroke-width="10.662" stroke-miterlimit="10" d="M-829,128.801c0.301-16.991-7.285-22.251-20.805-27.851
	c-13.849-5.735-33.385-10.446-43.489,4.254c-5.847,8.506-11.702,21.323-15.507,30.982c-2.938,7.46-5.098,26.378-1.441,34.097
	c4.535,9.572,22.235,11.708,31.469,8.874c12.352-3.792,17.261-15.478,26.644-22.766c5.763-4.477,24.866-7.646,28.155-13.894
	c4.044-7.681-4.948-19.087-8.025-25.064"/>
<line fill="none" stroke="#000000" stroke-width="10" stroke-miterlimit="10" x1="-828.801" y1="298.689" x2="-752.197" y2="298.689"/>
<g>
	<defs>
		<rect id="SVGID_1_" x="-470" y="50" width="400" height="400"/>
	</defs>
	<clipPath id="SVGID_2_">
		<use xlink:href="#SVGID_1_"  overflow="visible"/>
	</clipPath>
	<path clip-path="url(#SVGID_2_)" fill="#84A544" d="M-307.934,143.75C-311.016,119.092-332.009,100-357.5,100
		s-46.487,19.092-49.566,43.75H-457.5v12.5h50.434c3.079,24.658,24.075,43.75,49.566,43.75s46.484-19.092,49.566-43.75H-82.5v-12.5
		H-307.934z M-357.5,162.5c-6.903,0-12.5-5.597-12.5-12.5s5.597-12.5,12.5-12.5s12.5,5.597,12.5,12.5S-350.597,162.5-357.5,162.5"/>
	<path clip-path="url(#SVGID_2_)" fill="#84A544" d="M-182.5,200c-25.491,0-46.487,19.092-49.569,43.75H-457.5v12.5h225.431
		c3.082,24.655,24.078,43.75,49.569,43.75s46.484-19.095,49.569-43.75H-82.5v-12.5h-50.431C-136.016,219.092-157.009,200-182.5,200
		 M-182.5,262.5c-6.903,0-12.5-5.597-12.5-12.5s5.597-12.5,12.5-12.5s12.5,5.597,12.5,12.5S-175.597,262.5-182.5,262.5"/>
	<path clip-path="url(#SVGID_2_)" fill="#84A544" d="M-357.5,300c-25.491,0-46.487,19.095-49.566,43.75H-457.5v12.5h50.434
		c3.079,24.655,24.075,43.75,49.566,43.75s46.484-19.095,49.566-43.75H-82.5v-12.5h-225.434C-311.016,319.095-332.009,300-357.5,300
		 M-357.5,362.5c-6.903,0-12.5-5.597-12.5-12.5s5.597-12.5,12.5-12.5s12.5,5.597,12.5,12.5S-350.597,362.5-357.5,362.5"/>
</g>
<polygon points="198.474,-19 178.474,-19 188.474,-139 "/>
<circle cx="188.474" cy="-133.98" r="15"/>
<polygon points="188.474,-75.717 157.224,-85.717 188.474,-95.717 219.724,-85.717 "/>
<polygon points="188.474,-40.434 148.474,-50.434 188.474,-60.434 228.474,-50.434 "/>
<polyline points="387.915,-131.98 367.915,-120.98 347.915,-122.98 347.915,-113.98 347.915,-104.98 367.915,-106.98 
	387.915,-95.98 "/>
<rect x="342.915" y="-133.98" width="16" height="40"/>
<polygon points="805.63,421.422 783.63,421.422 783.503,421.609 772.79,440.164 750.048,417.422 750.013,417.459 743.146,410.592 
	740.312,407.936 738.526,410.949 726.026,432.6 719.442,444.006 717.856,441.26 710.356,428.27 709.978,428.27 687.978,428.27 
	687.978,438.27 704.583,438.27 709.196,446.26 713.669,454.006 713.952,454.496 716.696,459.25 719.478,464.104 722.188,459.25 
	724.933,454.494 725.216,454.006 734.688,437.6 742.493,424.08 764.36,445.947 764.396,445.912 771.263,452.777 774.812,456.436 
	777.163,452.59 789.386,431.422 805.63,431.422 "/>
<rect x="501.017" y="-116.1" width="80" height="24"/>
<path d="M564.379-102.491l16.335-28.292c1.4-2.428,3.653-4.057,6.162-4.729c2.51-0.673,5.275-0.388,7.702,1.015l0,0l0,0
	c2.427,1.4,4.057,3.652,4.729,6.162c0.672,2.51,0.387,5.274-1.015,7.702l-16.335,28.292"/>
<path d="M500.895-92.342l-16.335-28.292c-1.401-2.427-1.687-5.191-1.015-7.701c0.673-2.51,2.303-4.762,4.729-6.162l0,0l0,0
	c2.427-1.402,5.192-1.688,7.702-1.015c2.509,0.673,4.761,2.302,6.162,4.729l16.334,28.292"/>
<rect x="-150.872" y="617" fill="#F6F9FA" width="800" height="600"/>
<g>
	<path fill="#85A647" stroke="#000000" stroke-width="20" stroke-miterlimit="10" d="M450,1142.275c0-44.184-89.542-80-200.001-80
		c-110.456,0-199.999,35.816-199.999,80"/>
	<g>
		<path fill="#E5C17E" stroke="#000000" stroke-width="18.8376" stroke-miterlimit="10" d="M340.299,1000.127
			c0,18.646-6.009,33.76-24.652,33.76H184.354c-18.644,0-24.652-15.113-24.652-33.76L144.51,856.662
			c0-18.644,15.112-33.757,33.758-33.757h143.465c18.646,0,33.758,15.113,33.758,33.757L340.299,1000.127z"/>
		<circle stroke="#000000" stroke-width="15.2876" stroke-miterlimit="10" cx="211.57" cy="901.082" r="11.302"/>
		<circle stroke="#000000" stroke-width="15.2891" stroke-miterlimit="10" cx="288.43" cy="901.082" r="11.302"/>
		<g>
			<polygon points="376.918,918.534 389.633,917.263 389.633,900.167 412.24,900.167 412.24,956.681 389.633,956.681 
				389.633,939.585 376.918,938.313 348.66,953.854 348.66,902.993 			"/>
			<polygon points="123.082,915.681 110.367,914.409 110.367,897.313 87.76,897.313 87.76,953.827 110.367,953.827 110.367,936.731 
				123.082,935.46 151.34,951.001 151.34,900.14 			"/>
		</g>
		<polygon points="268.683,820.08 231.007,820.08 249.845,707.055 		"/>
		<circle cx="249.845" cy="712.724" r="21"/>
		<polygon points="249.845,767.241 209.844,757.241 249.845,747.241 289.844,757.241 		"/>
		<polygon points="249.845,802.474 199.844,790.474 249.845,778.474 299.844,790.474 		"/>
		<path d="M296.813,967.304c-0.542-1.803-1.863-3.422-3.826-4.43c-1.962-1.007-4.199-1.211-6.228-0.729
			c-2.03,0.484-3.854,1.656-4.985,3.402l-6.855,10.554h-49.838l-6.855-10.554c-1.134-1.744-2.955-2.918-4.985-3.4
			c-2.028-0.483-4.266-0.279-6.228,0.73c-1.963,1.005-3.284,2.624-3.826,4.429s-0.312,3.791,0.821,5.537l13.211,20.338l0.099-0.048
			v0.224h64.703v-0.567l0.761,0.392l13.211-20.338C297.126,971.097,297.355,969.11,296.813,967.304z"/>
	</g>
</g>
<g>
	<path d="M114.15,295.708c0,6.142-4.73,11.12-10.564,11.12l0,0c-5.835,0-10.564-4.979-10.564-11.12v-52.062
		c0-6.142,4.729-11.12,10.564-11.12l0,0c5.834,0,10.564,4.979,10.564,11.12V295.708z"/>
	<g>
		<path fill="#85A647" stroke="#000000" stroke-width="16.8819" stroke-miterlimit="10" d="M440,468.775
			c0-33.138-85.064-60-190.001-60c-104.934,0-189.999,26.862-189.999,60"/>
		<path fill="#E5C17E" stroke="#000000" stroke-width="17.5442" stroke-miterlimit="10" d="M335.784,338.494
			c0,16.792-5.709,30.402-23.42,30.402H187.636c-17.711,0-23.42-13.61-23.42-30.402l-8.632-129.199
			c0-16.789,12.557-30.399,30.271-30.399h128.291c17.714,0,30.271,13.61,30.271,30.399L335.784,338.494z"/>
		<polygon points="365.822,263.747 377.901,262.622 377.901,247.497 399.378,247.497 399.378,297.497 377.901,297.497 
			377.901,282.372 365.822,281.247 338.978,294.997 338.978,249.998 		"/>
		<polygon points="134.178,263.747 122.099,262.622 122.099,247.497 100.622,247.497 100.622,297.497 122.099,297.497 
			122.099,282.372 134.178,281.247 161.022,294.997 161.022,249.998 		"/>
		<polygon points="271.853,171.58 227.853,171.58 249.853,58.555 		"/>
		<circle cx="249.853" cy="56.224" r="25"/>
		<polygon points="249.853,113.741 199.852,104.741 249.853,95.741 299.852,104.741 		"/>
		<polygon points="249.853,147.974 184.852,136.973 249.853,125.974 314.852,136.973 		"/>
		<g>
			<circle stroke="#000000" stroke-width="13.5266" stroke-miterlimit="10" cx="213.491" cy="248.582" r="10"/>
			<circle stroke="#000000" stroke-width="13.5272" stroke-miterlimit="10" cx="286.509" cy="248.582" r="10"/>
			<path d="M294.473,303.804c-0.515-1.803-1.77-3.422-3.635-4.43c-1.863-1.007-3.989-1.211-5.916-0.729
				c-1.929,0.484-3.662,1.656-4.736,3.402l-6.513,10.554h-47.346l-6.513-10.554c-1.077-1.744-2.808-2.918-4.736-3.4
				c-1.927-0.483-4.053-0.279-5.916,0.73c-1.865,1.005-3.12,2.624-3.635,4.429s-0.297,3.791,0.78,5.537l12.55,20.338l0.094-0.048
				v0.224h61.469v-0.567l0.723,0.392l12.55-20.338C294.77,307.597,294.987,305.61,294.473,303.804z"/>
		</g>
		<path d="M406.979,297.708c0,6.142-4.729,11.12-10.564,11.12l0,0c-5.834,0-10.564-4.979-10.564-11.12v-52.062
			c0-6.143,4.73-11.121,10.564-11.121l0,0c5.835,0,10.564,4.979,10.564,11.121V297.708z"/>
	</g>
</g>
</svg>
